<svg width="21" height="27" viewBox="0 0 21 27" fill="none" xmlns="http://www.w3.org/2000/svg">
<path d="M2.625 27C1.90312 27 1.28537 26.7484 0.77175 26.2453C0.258125 25.7421 0.000875 25.1366 0 24.4286V11.5714C0 10.8643 0.25725 10.2591 0.77175 9.756C1.28625 9.25286 1.904 9.00086 2.625 9H3.9375V6.42857C3.9375 4.65 4.57756 3.13414 5.85769 1.881C7.13781 0.627858 8.68525 0.00085802 10.5 8.7762e-07C12.3147 -0.000856265 13.8626 0.626144 15.1436 1.881C16.4246 3.13586 17.0642 4.65171 17.0625 6.42857V9H18.375C19.0969 9 19.7151 9.252 20.2296 9.756C20.7441 10.26 21.0009 10.8651 21 11.5714V24.4286C21 25.1357 20.7432 25.7413 20.2296 26.2453C19.7159 26.7493 19.0977 27.0009 18.375 27H2.625ZM2.625 24.4286H18.375V11.5714H2.625V24.4286ZM10.5 20.5714C11.2219 20.5714 11.8401 20.3199 12.3546 19.8167C12.8691 19.3136 13.1259 18.708 13.125 18C13.1241 17.292 12.8673 16.6869 12.3546 16.1846C11.8418 15.6823 11.2236 15.4303 10.5 15.4286C9.77637 15.4269 9.15862 15.6789 8.64675 16.1846C8.13487 16.6903 7.87762 17.2954 7.875 18C7.87237 18.7046 8.12962 19.3101 8.64675 19.8167C9.16387 20.3233 9.78162 20.5749 10.5 20.5714ZM6.5625 9H14.4375V6.42857C14.4375 5.35714 14.0547 4.44643 13.2891 3.69643C12.5234 2.94643 11.5937 2.57143 10.5 2.57143C9.40625 2.57143 8.47656 2.94643 7.71094 3.69643C6.94531 4.44643 6.5625 5.35714 6.5625 6.42857V9Z" fill="#CD9010"/>
</svg>
