<svg width="17" height="17" viewBox="0 0 17 17" fill="none" xmlns="http://www.w3.org/2000/svg">
<path d="M11.05 4.95833H15.725L11.05 1.0625V4.95833ZM5.1 0H11.9L17 4.25V12.75C17 13.1257 16.8209 13.4861 16.5021 13.7517C16.1833 14.0174 15.7509 14.1667 15.3 14.1667H5.1C4.64913 14.1667 4.21673 14.0174 3.89792 13.7517C3.57911 13.4861 3.4 13.1257 3.4 12.75V1.41667C3.4 1.04094 3.57911 0.680609 3.89792 0.414932C4.21673 0.149256 4.64913 0 5.1 0ZM1.7 2.83333V15.5833H15.3V17H1.7C1.24913 17 0.81673 16.8507 0.497918 16.5851C0.179107 16.3194 0 15.9591 0 15.5833V2.83333H1.7Z" fill="#272829"/>
</svg>
