<svg width="21" height="18" viewBox="0 0 21 18" fill="none" xmlns="http://www.w3.org/2000/svg">
<path d="M4.33527 4.69043H3.22352C2.6338 4.69043 2.06824 4.88483 1.65125 5.23087C1.23426 5.57691 1 6.04624 1 6.53561V14.8389C1 15.3283 1.23426 15.7976 1.65125 16.1436C2.06824 16.4897 2.6338 16.6841 3.22352 16.6841H13.2293C13.819 16.6841 14.3846 16.4897 14.8016 16.1436C15.2186 15.7976 15.4528 15.3283 15.4528 14.8389V13.9163" stroke="#CD9010" stroke-width="2" stroke-linecap="round" stroke-linejoin="round"/>
<path d="M14.3409 2.84528L17.6762 5.61305M19.216 4.30758C19.6538 3.94422 19.8998 3.4514 19.8998 2.93754C19.8998 2.42367 19.6538 1.93085 19.216 1.56749C18.7781 1.20413 18.1842 1 17.565 1C16.9458 1 16.3519 1.20413 15.914 1.56749L6.55859 9.3034V12.0712H9.89387L19.216 4.30758Z" stroke="#CD9010" stroke-width="2" stroke-linecap="round" stroke-linejoin="round"/>
</svg>
