<svg width="24" height="21" viewBox="0 0 24 21" fill="none" xmlns="http://www.w3.org/2000/svg">
<path d="M14.0625 5.75C14.0625 4.8225 14.0625 3.375 14.0625 3.375C14.0625 2.74511 13.8123 2.14102 13.3669 1.69562C12.9215 1.25022 12.3174 1 11.6875 1H3.375C2.74511 1 2.14102 1.25022 1.69562 1.69562C1.25022 2.14102 1 2.74511 1 3.375V17.625C1 18.2549 1.25022 18.859 1.69562 19.3044C2.14102 19.7498 2.74511 20 3.375 20H11.6875C12.3174 20 12.9215 19.7498 13.3669 19.3044C13.8123 18.859 14.0625 18.2549 14.0625 17.625V15.25" stroke="#F8F8F8" stroke-width="2" stroke-linecap="round" stroke-linejoin="round"/>
<path d="M8.125 10.5H22.375M22.375 10.5L18.8125 6.9375M22.375 10.5L18.8125 14.0625" stroke="#F8F8F8" stroke-width="2" stroke-linecap="round" stroke-linejoin="round"/>
</svg>
