<svg width="22" height="20" viewBox="0 0 22 20" fill="none" xmlns="http://www.w3.org/2000/svg">
<path d="M20.7518 19.0002L16.1916 14.6572M16.1916 14.6572C16.9717 13.9143 17.5904 13.0324 18.0126 12.0618C18.4347 11.0911 18.652 10.0508 18.652 9.00021C18.652 7.9496 18.4347 6.90929 18.0126 5.93866C17.5904 4.96803 16.9717 4.08609 16.1916 3.34321C15.4116 2.60032 14.4856 2.01103 13.4664 1.60898C12.4472 1.20693 11.3549 1 10.2518 1C9.14865 1 8.05632 1.20693 7.03716 1.60898C6.01799 2.01103 5.09196 2.60032 4.31193 3.34321C2.73658 4.84354 1.85156 6.87842 1.85156 9.00021C1.85156 11.122 2.73658 13.1569 4.31193 14.6572C5.88728 16.1575 8.0239 17.0004 10.2518 17.0004C12.4797 17.0004 14.6163 16.1575 16.1916 14.6572Z" stroke="#F8F8F8" stroke-width="2" stroke-linecap="round" stroke-linejoin="round"/>
</svg>
